<svg width="185" height="30" viewBox="0 0 185 30" fill="none" xmlns="http://www.w3.org/2000/svg">
<g clip-path="url(#clip0_3777_9001)">
<path d="M44.5548 2.36328H40.7192V17.1245H44.5548V2.36328Z" fill="white"/>
<path d="M50.8509 11.914C50.8509 13.3669 51.7808 14.1805 52.9431 14.1805C54.241 14.1805 55.0933 13.1344 55.0933 11.914C55.0933 10.5192 54.3184 9.60876 52.9431 9.60876C51.7808 9.60876 50.8509 10.4611 50.8509 11.914ZM55.287 6.703H58.9289V17.1056H55.3451L55.1708 15.9821C54.2797 16.9894 52.9043 17.3575 51.742 17.28C48.6813 17.0863 46.9766 14.9166 46.9766 11.8946C46.9766 8.87264 48.9912 6.45117 52.0326 6.45117C53.5048 6.45117 54.5315 6.95484 55.0933 7.80719L55.287 6.68363V6.703Z" fill="white"/>
<path d="M71.2685 12.0299C71.2685 13.1341 72.0434 14.1996 73.3607 14.1996C74.523 14.1996 75.4528 13.386 75.4528 11.9331C75.4528 10.4802 74.523 9.64721 73.3607 9.64721C71.9853 9.64721 71.2685 10.7901 71.2685 12.0493M71.346 7.63255C71.9078 6.93517 72.8958 6.50899 74.2324 6.50899C77.2738 6.50899 79.2884 8.75611 79.2884 11.9331C79.2884 15.11 77.5837 17.1441 74.523 17.3184C73.3607 17.3765 71.9659 17.0278 71.0942 16.0205L70.9198 17.1441H67.4717V2.38281H71.346V7.59381V7.63255Z" fill="white"/>
<path d="M89.2649 11.9326C89.2649 10.7315 88.49 9.66606 87.1146 9.66606C85.7392 9.66606 84.9643 10.7315 84.9643 11.9326C84.9643 13.1336 85.7392 14.1797 87.1146 14.1797C88.49 14.1797 89.2649 13.1917 89.2649 11.9326ZM93.0617 11.9326C93.0617 15.7294 90.0397 17.376 87.1146 17.376C84.1895 17.376 81.1675 15.7294 81.1675 11.9326C81.1675 8.1357 84.0926 6.46973 87.1146 6.46973C90.1366 6.46973 93.0617 8.1357 93.0617 11.9326Z" fill="white"/>
<path d="M99.3768 6.72168H95.5024V17.1243H99.3768V6.72168Z" fill="white"/>
<path d="M106.331 1.97559V6.77977H108.675V9.74365H106.312V13.1531C106.331 13.8892 106.758 14.1604 107.339 14.1604C107.726 14.1604 108.152 14.0054 108.482 13.7923L109.315 16.6594C108.424 17.163 107.397 17.3567 106.331 17.3567C104.259 17.3567 102.418 16.4075 102.476 13.1531V2.40176L106.331 1.97559Z" fill="white"/>
<path d="M118.458 10.5192C118.361 8.87264 114.932 8.81452 114.681 10.5192H118.458ZM121.926 12.9988H114.661C114.932 13.9287 116.133 14.3355 116.986 14.3355C118.129 14.3355 118.981 14.0061 119.659 13.4831L121.557 15.614C120.318 16.7763 118.613 17.3381 116.811 17.3381C113.518 17.3381 110.748 15.7109 110.748 11.9334C110.748 8.15588 113.712 6.45117 116.54 6.45117C120.221 6.45117 122.817 8.89201 121.926 12.9988Z" fill="white"/>
<path d="M131.03 6.66406H130.003V17.1054H131.03V6.66406Z" fill="white"/>
<path d="M150.15 17.1245V10.8868C150.15 8.89151 148.794 7.47738 146.818 7.47738C144.843 7.47738 143.467 8.94963 143.467 10.9449V17.1245H142.44V10.9449C142.44 8.94963 141.065 7.49675 139.089 7.49675C137.113 7.49675 135.757 8.94963 135.757 10.9449V17.1245H134.73V6.72188H135.699V8.44596C136.435 7.07057 137.772 6.50879 139.108 6.50879C140.697 6.50879 142.363 7.22554 142.963 9.08523C143.603 7.38052 145.211 6.50879 146.818 6.50879C149.375 6.50879 151.177 8.29099 151.177 10.8868V17.1245H150.15Z" fill="white"/>
<path d="M170.239 17.1245V10.8868C170.239 8.89151 168.883 7.47738 166.907 7.47738C164.931 7.47738 163.556 8.94963 163.556 10.9449V17.1245H162.529V10.9449C162.529 8.94963 161.153 7.49675 159.177 7.49675C157.202 7.49675 155.846 8.94963 155.846 10.9449V17.1245H154.819V6.72188H155.787V8.44596C156.524 7.07057 157.86 6.50879 159.197 6.50879C160.785 6.50879 162.432 7.22554 163.052 9.08523C163.691 7.38052 165.299 6.50879 166.907 6.50879C169.464 6.50879 171.265 8.29099 171.265 10.8868V17.1245H170.239Z" fill="white"/>
<path d="M183.992 11.933C183.992 9.24036 182.075 7.49691 179.711 7.49691C177.348 7.49691 175.43 9.24036 175.43 11.933C175.43 14.6257 177.348 16.2529 179.711 16.2529C182.075 16.2529 183.992 14.6257 183.992 11.933ZM174.423 11.933C174.423 8.62047 176.786 6.52832 179.711 6.52832C182.636 6.52832 185 8.63984 185 11.933C185 15.2262 182.636 17.2603 179.711 17.2603C176.786 17.2603 174.423 15.2456 174.423 11.933Z" fill="white"/>
<path d="M98.4084 2.18945L101.237 5.54076V5.69574H98.2534L97.3429 4.76589L96.3937 5.69574H93.4492V5.54076L96.2775 2.18945H98.4084Z" fill="#BED000"/>
<path d="M131.379 3.33164C131.379 4.43582 129.713 4.43582 129.713 3.33164C129.713 2.22745 131.379 2.24682 131.379 3.33164Z" fill="#BED000"/>
<path d="M16.5629 16.4079L11.8362 24.5827C11.6618 24.8733 11.3131 24.9702 11.0226 24.7958L10.5189 24.5052C10.2283 24.3503 10.1315 23.9822 10.3058 23.6916L15.0325 15.5168C15.3424 14.9743 15.3424 14.3157 15.0325 13.7733L10.3252 5.59843C10.1702 5.30785 10.2671 4.95916 10.5383 4.78482L11.0419 4.49424C11.3325 4.33927 11.6812 4.43613 11.8555 4.70733L16.5822 12.8822C16.8922 13.4246 17.4733 13.7539 18.0932 13.7539H30.9561C31.8665 13.7539 32.4283 12.766 31.9634 11.9911L25.687 1.14293C25.2801 0.426178 24.5246 0 23.711 0H9.43407C8.62046 0 7.86496 0.44555 7.45816 1.14293L0.309988 13.5021C-0.0968188 14.2188 -0.0968188 15.0906 0.309988 15.788L7.45816 28.1471C7.86496 28.8639 8.62046 29.2901 9.43407 29.2901H23.711C24.5246 29.2901 25.2801 28.8639 25.687 28.1471L31.9634 17.2796C32.4089 16.5047 31.8472 15.5168 30.9561 15.5168H18.0932C17.4733 15.5168 16.8922 15.8461 16.5822 16.3885" fill="#BED000"/>
<path d="M40.758 25.6673H41.4166V22.7809H40.7192V22.0254H42.269V25.6673H42.8889V26.3647H40.758V25.6673Z" fill="white"/>
<path d="M44.6713 22.7615C44.6326 22.5291 44.4582 22.4128 44.2064 22.4128C43.9739 22.4128 43.7802 22.5291 43.7027 22.7615H44.6519H44.6713ZM43.7027 23.1296C43.7221 23.3427 43.9158 23.517 44.2258 23.517C44.3807 23.517 44.5938 23.4589 44.6907 23.3427L44.9619 23.6139C44.7682 23.8076 44.4776 23.9044 44.2064 23.9044C43.5865 23.9044 43.2378 23.5364 43.2378 22.9552C43.2378 22.3741 43.6059 22.0254 44.187 22.0254C44.7682 22.0254 45.1556 22.3935 45.0781 23.1296H43.6833H43.7027Z" fill="white"/>
<path d="M45.8723 22.0837L45.911 22.2968C46.0466 22.0837 46.221 22.0449 46.4147 22.0449C46.6084 22.0449 46.7828 22.1224 46.8796 22.2193L46.6859 22.6067C46.6859 22.6067 46.5116 22.4905 46.376 22.4905C46.1435 22.4905 45.9304 22.6067 45.9304 22.936V23.8659H45.4849V22.0837H45.8917H45.8723Z" fill="white"/>
<path d="M51.858 24.3306H53.0785C54.1245 24.3306 54.1245 22.8003 53.0785 22.8003H51.858V24.3306ZM53.0785 25.0861H51.858V26.3647H51.0444V22.0254C51.7224 22.0254 52.4005 22.0254 53.0785 22.0254C55.19 22.0254 55.19 25.0861 53.0785 25.0861Z" fill="white"/>
<path d="M58.406 22.9357L57.5924 24.776H59.2002L58.3866 22.9357H58.406ZM59.5296 25.5315H57.2631L56.895 26.3451H56.0039L57.9411 22.0059H58.8322L60.7694 26.3451H59.8783L59.5102 25.5315H59.5296Z" fill="white"/>
<path d="M63.2098 22.7807V24.1755H64.4496C64.9726 24.1755 65.1857 23.8268 65.1857 23.4781C65.1857 23.1294 64.9532 22.7807 64.4496 22.7807H63.2098ZM66.2318 26.3451H65.2632L64.004 24.8922H63.2291V26.3451H62.4155V22.0059C63.1129 22.0059 63.7909 22.0059 64.4689 22.0059C65.4956 22.0059 66.0187 22.6839 66.0187 23.4394C66.0187 24.0399 65.7475 24.6404 64.9339 24.7954L66.2511 26.2676V26.3258L66.2318 26.3451Z" fill="white"/>
<path d="M69.1186 22.7615H67.7432V22.0254H71.3076V22.7615H69.9322V26.3647H69.1186V22.7615Z" fill="white"/>
<path d="M76.2663 26.3647H73.0312V22.0254H76.2663V22.8196H73.8255V23.8076H76.1695V24.5825H73.8255V25.551H76.2663V26.3647Z" fill="white"/>
<path d="M81.1094 22.0254H81.923V26.3647H81.4193L79.1334 23.4395V26.3647H78.3198V22.0254H78.9785L81.1094 24.7181V22.0254Z" fill="white"/>
<path d="M85.8557 22.9357L85.0421 24.776H86.6499L85.8363 22.9357H85.8557ZM86.9793 25.5315H84.7128L84.3447 26.3451H83.4536L85.3908 22.0059H86.2819L88.2191 26.3451H87.328L86.9599 25.5315H86.9793Z" fill="white"/>
<path d="M90.6017 22.0254H89.7881V26.3647H90.6017V22.0254Z" fill="white"/>
<path d="M93.43 22.7807V24.1755H94.6698C95.1928 24.1755 95.4059 23.8268 95.4059 23.4781C95.4059 23.1294 95.1734 22.7807 94.6698 22.7807H93.43ZM96.452 26.3451H95.4834L94.2242 24.8922H93.4494V26.3451H92.6357V22.0059C93.3331 22.0059 94.0111 22.0059 94.6891 22.0059C95.7158 22.0059 96.2389 22.6839 96.2389 23.4394C96.2389 24.0399 95.9677 24.6404 95.1541 24.7954L96.4713 26.2676V26.3258L96.452 26.3451Z" fill="white"/>
<path d="M101.237 26.3647H98.0015V22.0254H101.237V22.8196H98.8151V23.8076H101.159V24.5825H98.8151V25.551H101.237V26.3647Z" fill="white"/>
<path d="M106.235 25.5704H107.126C108.114 25.5704 108.501 24.8537 108.482 24.1563C108.482 23.4783 108.075 22.8003 107.126 22.8003H106.235V25.5704ZM109.295 24.1563C109.295 25.2605 108.637 26.3647 107.126 26.3647H105.421V22.0254H107.126C108.617 22.0254 109.276 23.0908 109.295 24.1563Z" fill="white"/>
<path d="M114.293 26.3647H111.058V22.0254H114.293V22.8196H111.852V23.8076H114.196V24.5825H111.852V25.551H114.293V26.3647Z" fill="white"/>
<path d="M118.962 23.072C118.807 22.8201 118.4 22.5877 117.935 22.5877C117.335 22.5877 117.044 22.8395 117.044 23.1688C117.044 23.5369 117.49 23.6531 118.013 23.7112C118.923 23.8275 119.756 24.0599 119.756 25.0866C119.756 26.0552 118.904 26.462 117.935 26.462C117.044 26.462 116.366 26.1908 116.056 25.3966L116.734 25.0479C116.928 25.5322 117.432 25.7259 117.955 25.7259C118.478 25.7259 118.943 25.5516 118.943 25.0673C118.943 24.6605 118.516 24.4861 117.935 24.428C117.044 24.3311 116.23 24.0793 116.23 23.1107C116.23 22.2196 117.102 21.8516 117.896 21.8516C118.574 21.8516 119.272 22.0453 119.601 22.7039L118.962 23.0332V23.072Z" fill="white"/>
<path d="M124.735 22.0254H123.921V26.3647H124.735V22.0254Z" fill="white"/>
<path d="M129.577 22.0254H130.41V26.3647H129.887L127.621 23.4395V26.3647H126.807V22.0254H127.466L129.577 24.7181V22.0254Z" fill="white"/>
<path d="M133.142 25.5704H134.033C135.021 25.5704 135.408 24.8537 135.389 24.1563C135.389 23.4783 134.982 22.8003 134.033 22.8003H133.142V25.5704ZM136.202 24.1563C136.202 25.2605 135.544 26.3647 134.033 26.3647H132.328V22.0254H134.033C135.524 22.0254 136.183 23.0908 136.202 24.1563Z" fill="white"/>
<path d="M140.6 20.7088H139.709L139.244 21.5418V21.5806H139.922L140.6 20.7282V20.6895V20.7088ZM141.2 26.346H137.965V22.0261H141.2V22.8203H138.76V23.8083H141.104V24.5638H138.76V25.5324H141.2V26.3266V26.346Z" fill="white"/>
<path d="M143.855 24.3306H145.075C146.121 24.3306 146.121 22.8003 145.075 22.8003H143.855V24.3306ZM145.075 25.0861H143.855V26.3647H143.041V22.0254C143.719 22.0254 144.397 22.0254 145.075 22.0254C147.187 22.0254 147.187 25.0861 145.075 25.0861Z" fill="white"/>
<path d="M151.68 26.3647H148.445V22.0254H151.68V22.8196H149.259V23.8076H151.603V24.5825H149.259V25.551H151.68V26.3647Z" fill="white"/>
<path d="M156.524 22.0254H157.357V26.3647H156.834L154.567 23.4395V26.3647H153.753V22.0254H154.412L156.524 24.7181V22.0254Z" fill="white"/>
<path d="M160.088 25.5704H160.979C161.967 25.5704 162.355 24.8537 162.335 24.1563C162.335 23.4783 161.928 22.8003 160.979 22.8003H160.088V25.5704ZM163.149 24.1563C163.149 25.2605 162.49 26.3647 160.979 26.3647H159.274V22.0254H160.979C162.471 22.0254 163.129 23.0908 163.149 24.1563Z" fill="white"/>
<path d="M166.868 22.9357L166.054 24.776H167.662L166.849 22.9357H166.868ZM167.991 25.5315H165.725L165.357 26.3451H164.466L166.403 22.0059H167.294L169.231 26.3451H168.34L167.972 25.5315H167.991Z" fill="white"/>
<path d="M173.707 22.0254H174.52V26.3647H174.016L171.731 23.4395V26.3647H170.917V22.0254H171.576L173.707 24.7181V22.0254Z" fill="white"/>
<path d="M177.619 22.7615H176.263V22.0254H179.808V22.7615H178.452V26.3647H177.619V22.7615Z" fill="white"/>
<path d="M184.225 23.072C184.07 22.8201 183.663 22.5877 183.198 22.5877C182.598 22.5877 182.307 22.8395 182.307 23.1688C182.307 23.5369 182.753 23.6531 183.276 23.7112C184.186 23.8275 185.019 24.0599 185.019 25.0866C185.019 26.0552 184.167 26.462 183.198 26.462C182.307 26.462 181.629 26.1908 181.319 25.3966L181.997 25.0479C182.191 25.5322 182.695 25.7259 183.218 25.7259C183.741 25.7259 184.206 25.5516 184.206 25.0673C184.206 24.6605 183.78 24.4861 183.198 24.428C182.307 24.3311 181.494 24.0793 181.494 23.1107C181.494 22.2196 182.365 21.8516 183.16 21.8516C183.838 21.8516 184.535 22.0453 184.864 22.7039L184.225 23.0332V23.072Z" fill="white"/>
</g>
<defs>
<clipPath id="clip0_3777_9001">
<rect width="185" height="29.3094" fill="white"/>
</clipPath>
</defs>
</svg>
